<mxfile host="app.diagrams.net" agent="Mozilla/5.0 (Macintosh; Intel Mac OS X 10_15_7) AppleWebKit/537.36 (KHTML, like Gecko) Chrome/130.0.0.0 Safari/537.36" version="24.8.3">
  <diagram name="Page-1" id="VqUrxlYvlKy-yj-8lP-o">
    <mxGraphModel dx="1434" dy="745" grid="1" gridSize="10" guides="1" tooltips="1" connect="1" arrows="1" fold="1" page="1" pageScale="1" pageWidth="850" pageHeight="1100" math="0" shadow="0">
      <root>
        <mxCell id="0" />
        <mxCell id="1" parent="0" />
        <mxCell id="UnWG6JOplF5pd2t0z8uG-3" value="" style="edgeStyle=orthogonalEdgeStyle;rounded=0;orthogonalLoop=1;jettySize=auto;html=1;" edge="1" parent="1" source="UnWG6JOplF5pd2t0z8uG-1" target="UnWG6JOplF5pd2t0z8uG-2">
          <mxGeometry relative="1" as="geometry" />
        </mxCell>
        <mxCell id="UnWG6JOplF5pd2t0z8uG-1" value="Program generates a random word" style="ellipse;whiteSpace=wrap;html=1;" vertex="1" parent="1">
          <mxGeometry x="350" y="100" width="120" height="80" as="geometry" />
        </mxCell>
        <mxCell id="UnWG6JOplF5pd2t0z8uG-5" value="" style="edgeStyle=orthogonalEdgeStyle;rounded=0;orthogonalLoop=1;jettySize=auto;html=1;" edge="1" parent="1" source="UnWG6JOplF5pd2t0z8uG-2" target="UnWG6JOplF5pd2t0z8uG-4">
          <mxGeometry relative="1" as="geometry" />
        </mxCell>
        <mxCell id="UnWG6JOplF5pd2t0z8uG-2" value="Displays an underscore for each letter represented" style="ellipse;whiteSpace=wrap;html=1;" vertex="1" parent="1">
          <mxGeometry x="350" y="230" width="120" height="80" as="geometry" />
        </mxCell>
        <mxCell id="UnWG6JOplF5pd2t0z8uG-7" value="" style="edgeStyle=orthogonalEdgeStyle;rounded=0;orthogonalLoop=1;jettySize=auto;html=1;" edge="1" parent="1" source="UnWG6JOplF5pd2t0z8uG-4" target="UnWG6JOplF5pd2t0z8uG-6">
          <mxGeometry relative="1" as="geometry" />
        </mxCell>
        <mxCell id="UnWG6JOplF5pd2t0z8uG-9" value="" style="edgeStyle=orthogonalEdgeStyle;rounded=0;orthogonalLoop=1;jettySize=auto;html=1;" edge="1" parent="1" source="UnWG6JOplF5pd2t0z8uG-4" target="UnWG6JOplF5pd2t0z8uG-8">
          <mxGeometry relative="1" as="geometry" />
        </mxCell>
        <mxCell id="UnWG6JOplF5pd2t0z8uG-4" value="User guesses a letter" style="ellipse;whiteSpace=wrap;html=1;" vertex="1" parent="1">
          <mxGeometry x="370" y="360" width="80" height="80" as="geometry" />
        </mxCell>
        <mxCell id="UnWG6JOplF5pd2t0z8uG-13" value="" style="edgeStyle=orthogonalEdgeStyle;rounded=0;orthogonalLoop=1;jettySize=auto;html=1;" edge="1" parent="1" source="UnWG6JOplF5pd2t0z8uG-6" target="UnWG6JOplF5pd2t0z8uG-12">
          <mxGeometry relative="1" as="geometry" />
        </mxCell>
        <mxCell id="UnWG6JOplF5pd2t0z8uG-6" value="If uncorrect, an image will generate taking it one step further from stickman from being hung" style="whiteSpace=wrap;html=1;" vertex="1" parent="1">
          <mxGeometry x="510" y="360" width="160" height="80" as="geometry" />
        </mxCell>
        <mxCell id="UnWG6JOplF5pd2t0z8uG-11" value="" style="edgeStyle=orthogonalEdgeStyle;rounded=0;orthogonalLoop=1;jettySize=auto;html=1;" edge="1" parent="1" source="UnWG6JOplF5pd2t0z8uG-8" target="UnWG6JOplF5pd2t0z8uG-10">
          <mxGeometry relative="1" as="geometry" />
        </mxCell>
        <mxCell id="UnWG6JOplF5pd2t0z8uG-8" value="If correct, a blank underscore will display the letter guessed" style="whiteSpace=wrap;html=1;" vertex="1" parent="1">
          <mxGeometry x="180" y="370" width="120" height="60" as="geometry" />
        </mxCell>
        <mxCell id="UnWG6JOplF5pd2t0z8uG-10" value="Are all the blanks filled?" style="whiteSpace=wrap;html=1;" vertex="1" parent="1">
          <mxGeometry x="180" y="510" width="120" height="60" as="geometry" />
        </mxCell>
        <mxCell id="UnWG6JOplF5pd2t0z8uG-12" value="Have they run out of lives?" style="whiteSpace=wrap;html=1;" vertex="1" parent="1">
          <mxGeometry x="530" y="510" width="120" height="60" as="geometry" />
        </mxCell>
        <mxCell id="UnWG6JOplF5pd2t0z8uG-14" value="" style="endArrow=classic;html=1;rounded=0;exitX=1;exitY=0.5;exitDx=0;exitDy=0;" edge="1" parent="1" source="UnWG6JOplF5pd2t0z8uG-10">
          <mxGeometry width="50" height="50" relative="1" as="geometry">
            <mxPoint x="360" y="600" as="sourcePoint" />
            <mxPoint x="410" y="540" as="targetPoint" />
            <Array as="points">
              <mxPoint x="300" y="540" />
            </Array>
          </mxGeometry>
        </mxCell>
        <mxCell id="UnWG6JOplF5pd2t0z8uG-16" value="" style="endArrow=classic;html=1;rounded=0;exitX=1;exitY=0.5;exitDx=0;exitDy=0;" edge="1" parent="1">
          <mxGeometry width="50" height="50" relative="1" as="geometry">
            <mxPoint x="409.5" y="540" as="sourcePoint" />
            <mxPoint x="409.5" y="440" as="targetPoint" />
            <Array as="points">
              <mxPoint x="409.5" y="540" />
            </Array>
          </mxGeometry>
        </mxCell>
        <mxCell id="UnWG6JOplF5pd2t0z8uG-19" value="No" style="edgeLabel;html=1;align=center;verticalAlign=middle;resizable=0;points=[];" vertex="1" connectable="0" parent="UnWG6JOplF5pd2t0z8uG-16">
          <mxGeometry x="0.04" y="3" relative="1" as="geometry">
            <mxPoint x="1" as="offset" />
          </mxGeometry>
        </mxCell>
        <mxCell id="UnWG6JOplF5pd2t0z8uG-20" value="" style="endArrow=classic;html=1;rounded=0;exitX=0.025;exitY=0.65;exitDx=0;exitDy=0;exitPerimeter=0;" edge="1" parent="1">
          <mxGeometry width="50" height="50" relative="1" as="geometry">
            <mxPoint x="530" y="539.5" as="sourcePoint" />
            <mxPoint x="427" y="540.5" as="targetPoint" />
            <Array as="points" />
          </mxGeometry>
        </mxCell>
        <mxCell id="UnWG6JOplF5pd2t0z8uG-21" value="" style="endArrow=classic;html=1;rounded=0;exitX=1;exitY=0.5;exitDx=0;exitDy=0;" edge="1" parent="1">
          <mxGeometry width="50" height="50" relative="1" as="geometry">
            <mxPoint x="430" y="540" as="sourcePoint" />
            <mxPoint x="430" y="440" as="targetPoint" />
            <Array as="points">
              <mxPoint x="430" y="540" />
            </Array>
          </mxGeometry>
        </mxCell>
        <mxCell id="UnWG6JOplF5pd2t0z8uG-22" value="No" style="edgeLabel;html=1;align=center;verticalAlign=middle;resizable=0;points=[];" vertex="1" connectable="0" parent="UnWG6JOplF5pd2t0z8uG-21">
          <mxGeometry x="0.04" y="3" relative="1" as="geometry">
            <mxPoint x="1" as="offset" />
          </mxGeometry>
        </mxCell>
        <mxCell id="UnWG6JOplF5pd2t0z8uG-23" value="" style="endArrow=classic;html=1;rounded=0;" edge="1" parent="1">
          <mxGeometry width="50" height="50" relative="1" as="geometry">
            <mxPoint x="409.5" y="570" as="sourcePoint" />
            <mxPoint x="409.5" y="655" as="targetPoint" />
          </mxGeometry>
        </mxCell>
        <mxCell id="UnWG6JOplF5pd2t0z8uG-24" value="" style="endArrow=classic;html=1;rounded=0;" edge="1" parent="1">
          <mxGeometry width="50" height="50" relative="1" as="geometry">
            <mxPoint x="410" y="540" as="sourcePoint" />
            <mxPoint x="409.5" y="655" as="targetPoint" />
            <Array as="points" />
          </mxGeometry>
        </mxCell>
        <mxCell id="UnWG6JOplF5pd2t0z8uG-26" value="Yes" style="edgeLabel;html=1;align=center;verticalAlign=middle;resizable=0;points=[];" vertex="1" connectable="0" parent="UnWG6JOplF5pd2t0z8uG-24">
          <mxGeometry x="-0.1649" y="-4" relative="1" as="geometry">
            <mxPoint as="offset" />
          </mxGeometry>
        </mxCell>
        <mxCell id="UnWG6JOplF5pd2t0z8uG-25" value="" style="endArrow=classic;html=1;rounded=0;" edge="1" parent="1">
          <mxGeometry width="50" height="50" relative="1" as="geometry">
            <mxPoint x="430" y="540" as="sourcePoint" />
            <mxPoint x="430" y="655" as="targetPoint" />
            <Array as="points" />
          </mxGeometry>
        </mxCell>
        <mxCell id="UnWG6JOplF5pd2t0z8uG-27" value="Yes" style="edgeLabel;html=1;align=center;verticalAlign=middle;resizable=0;points=[];" vertex="1" connectable="0" parent="UnWG6JOplF5pd2t0z8uG-25">
          <mxGeometry x="-0.1652" y="2" relative="1" as="geometry">
            <mxPoint as="offset" />
          </mxGeometry>
        </mxCell>
        <mxCell id="UnWG6JOplF5pd2t0z8uG-28" value="Game over" style="ellipse;whiteSpace=wrap;html=1;" vertex="1" parent="1">
          <mxGeometry x="350" y="670" width="130" height="80" as="geometry" />
        </mxCell>
      </root>
    </mxGraphModel>
  </diagram>
</mxfile>
